<svg width="144" height="144" xmlns="http://www.w3.org/2000/svg" xmlns:xlink="http://www.w3.org/1999/xlink" xml:space="preserve" overflow="hidden">
<rect width="100%" height="100%" fill="#0D0D0D"/>
<g transform="translate(-568 -288)"><path d="M683.5 340.2C670 325.5 655.45 335.55 644.35 338.1 644.05 334.5 643.15 331.2 642.1 328.05 646.75 327.6 653.65 326.1 658.45 321.15 666.25 313.35 665.5 300.15 665.5 300.15 665.5 300.15 652.15 299.4 644.5 307.2 640.9 310.8 639.1 315.6 638.2 319.8 631.6 308.7 622 302.85 621.4 302.4L616.75 310.05C616.9 310.2 633.1 320.25 635.35 337.95 624.4 335.25 609.7 325.5 596.5 340.05 581.95 356.1 594.4 438.3 640.15 415.65 685.75 438.45 698.05 356.25 683.5 340.2Z" fill="#F44336"/></g></svg>